<svg xmlns="http://www.w3.org/2000/svg" xmlns:xlink="http://www.w3.org/1999/xlink" xmlns:lucid="lucid" width="1238" height="1143"><g transform="translate(-40 0)" lucid:page-tab-id="0_0"><path d="M80 427.92c0-4.42 3.58-8 8-8h264c4.42 0 8 3.58 8 8v364c0 4.4-3.58 8-8 8H88c-4.42 0-8-3.6-8-8z" fill="#fff"/><path d="M80 419.92h280v40H80z" fill="#ccc"/><path d="M80 427.92c0-4.42 3.58-8 8-8h264c4.42 0 8 3.58 8 8v364c0 4.4-3.58 8-8 8H88c-4.42 0-8-3.6-8-8zM80 459.92h280M220 459.92v340" stroke="#666" fill="none"/><use xlink:href="#a" transform="matrix(1,0,0,1,90,419.91573379764804) translate(14 27.14666666666667)"/><use xlink:href="#b" transform="matrix(1,0,0,1,85,462.41573379764804) translate(14 21.64666666666667)"/><use xlink:href="#c" transform="matrix(1,0,0,1,225,462.41573379764804) translate(14 21.64666666666667)"/><use xlink:href="#d" transform="matrix(1,0,0,1,225,462.41573379764804) translate(76.11555555555555 21.64666666666667)"/><use xlink:href="#e" transform="matrix(1,0,0,1,85,496.41573379764804) translate(14 21.64666666666667)"/><use xlink:href="#f" transform="matrix(1,0,0,1,225,496.41573379764804) translate(14 21.64666666666667)"/><use xlink:href="#g" transform="matrix(1,0,0,1,85,530.415733797648) translate(14 21.64666666666667)"/><use xlink:href="#f" transform="matrix(1,0,0,1,225,530.415733797648) translate(14 21.64666666666667)"/><use xlink:href="#h" transform="matrix(1,0,0,1,85,564.415733797648) translate(14 21.64666666666667)"/><use xlink:href="#f" transform="matrix(1,0,0,1,225,564.415733797648) translate(14 21.64666666666667)"/><use xlink:href="#i" transform="matrix(1,0,0,1,85,598.415733797648) translate(14 21.64666666666667)"/><use xlink:href="#j" transform="matrix(1,0,0,1,225,598.415733797648) translate(14 21.64666666666667)"/><use xlink:href="#k" transform="matrix(1,0,0,1,85,632.415733797648) translate(14 21.64666666666667)"/><use xlink:href="#j" transform="matrix(1,0,0,1,225,632.415733797648) translate(14 21.64666666666667)"/><use xlink:href="#l" transform="matrix(1,0,0,1,85,666.415733797648) translate(14 21.64666666666667)"/><use xlink:href="#j" transform="matrix(1,0,0,1,225,666.415733797648) translate(14 21.64666666666667)"/><use xlink:href="#m" transform="matrix(1,0,0,1,85,700.415733797648) translate(14 21.64666666666667)"/><use xlink:href="#f" transform="matrix(1,0,0,1,225,700.415733797648) translate(14 21.64666666666667)"/><use xlink:href="#n" transform="matrix(1,0,0,1,85,734.415733797648) translate(14 21.64666666666667)"/><use xlink:href="#f" transform="matrix(1,0,0,1,225,734.415733797648) translate(14 21.64666666666667)"/><use xlink:href="#o" transform="matrix(1,0,0,1,85,768.415733797648) translate(14 21.64666666666667)"/><use xlink:href="#p" transform="matrix(1,0,0,1,225,768.415733797648) translate(14 21.64666666666667)"/><path d="M480 388c0-4.42 3.58-8 8-8h264c4.42 0 8 3.58 8 8v194c0 4.42-3.58 8-8 8H488c-4.42 0-8-3.58-8-8z" fill="#fff"/><path d="M480 380h280v40H480z" fill="#ccc"/><path d="M480 388c0-4.42 3.58-8 8-8h264c4.42 0 8 3.58 8 8v194c0 4.42-3.58 8-8 8H488c-4.42 0-8-3.58-8-8zM480 420h280M620 420v170" stroke="#666" fill="none"/><use xlink:href="#q" transform="matrix(1,0,0,1,490,380) translate(14 27.14666666666667)"/><use xlink:href="#r" transform="matrix(1,0,0,1,485,422.5) translate(14 21.64666666666667)"/><use xlink:href="#c" transform="matrix(1,0,0,1,625,422.5) translate(14 21.64666666666667)"/><use xlink:href="#d" transform="matrix(1,0,0,1,625,422.5) translate(76.11555555555555 21.64666666666667)"/><use xlink:href="#b" transform="matrix(1,0,0,1,485,456.5) translate(14 21.64666666666667)"/><use xlink:href="#c" transform="matrix(1,0,0,1,625,456.5) translate(14 21.64666666666667)"/><use xlink:href="#s" transform="matrix(1,0,0,1,625,456.5) translate(76.11555555555555 21.64666666666667)"/><use xlink:href="#t" transform="matrix(1,0,0,1,485,490.5) translate(14 21.64666666666667)"/><use xlink:href="#j" transform="matrix(1,0,0,1,625,490.5) translate(14 21.64666666666667)"/><use xlink:href="#u" transform="matrix(1,0,0,1,485,524.5) translate(14 21.64666666666667)"/><use xlink:href="#f" transform="matrix(1,0,0,1,625,524.5) translate(14 21.64666666666667)"/><use xlink:href="#v" transform="matrix(1,0,0,1,485,558.5) translate(14 21.64666666666667)"/><use xlink:href="#w" transform="matrix(1,0,0,1,625,558.5) translate(14 21.64666666666667)"/><path d="M780.5 505h36.54c1.64 0 2.96 1.32 2.96 2.96 0 1.63 1.32 2.96 2.96 2.96H840" stroke="#999" fill="none"/><path fill="#fff"/><path d="M781 515h-1v-20h1z" fill="#999"/><path fill="#fff"/><path d="M780.5 505.5h-20v-1h20z" fill="#999"/><path d="M879.28 520.92l-20-10 20-10z" fill="#fff"/><path d="M879.5 501.36l-19.1 9.56 19.1 9.55-.45.9-20.9-10.45 20.9-10.45z" fill="#999"/><path fill="#fff"/><path d="M879.28 511.42h-20v-1h20z" fill="#999"/><path d="M859.28 510.92l-.5 3.16-1.43 2.74-2.17 2.17-2.74 1.4-3.16.52-3.16-.5-2.75-1.43-2.16-2.18-1.4-2.74-.52-3.16.5-3.17 1.43-2.74 2.17-2.15 2.75-1.42 3.16-.5 3.16.5 2.74 1.42 2.17 2.16 1.42 2.75.5 3.17z" fill="#fff"/><path d="M852.6 500.94l2.88 1.5 2.28 2.27 1.5 2.9.5 3.24-.48.08.5.08-.53 3.24-1.5 2.88-2.27 2.27-2.88 1.5-3.32.52-3.32-.53-2.9-1.5-2.26-2.28-1.5-2.88-.53-3.32.54-3.32 1.5-2.9 2.27-2.26 2.9-1.5 3.3-.53zm-6.33.97l-2.6 1.35-2.06 2.06-1.33 2.6-.5 3.02.5 3 1.34 2.6 2.07 2.06 2.6 1.35 3 .48 3-.47 2.6-1.35 2.07-2.06 1.35-2.6.47-3-.48-3-1.36-2.6-2.06-2.07-2.6-1.34-3-.48z" fill="#999"/><path d="M320.7 399.42v-71.64c0-4.14 3.35-7.5 7.5-7.5h145.02c4.14 0 7.5-3.36 7.5-7.5v-52.14" stroke="#999" fill="none"/><path fill="#fff"/><path d="M330.7 399.92h-20v-1h20z" fill="#999"/><path fill="#fff"/><path d="M321.2 419.42h-1v-20h1z" fill="#999"/><path d="M490.72 221.36l-10 20-10-20z" fill="#fff"/><path d="M491.17 221.6l-10.45 20.88-10.45-20.9.9-.44 9.55 19.1 9.55-19.1z" fill="#999"/><path fill="#fff"/><path d="M481.22 241.36h-1v-20h1z" fill="#999"/><path d="M490.72 251.36l-.5 3.16-1.43 2.75-2.17 2.16-2.75 1.42-3.16.5-3.16-.5-2.74-1.42-2.17-2.16-1.42-2.75-.5-3.16.5-3.16 1.42-2.74 2.17-2.17 2.74-1.43 3.16-.5 3.16.5 2.75 1.42 2.16 2.16 1.4 2.74.52 3.16z" fill="#fff"/><path d="M484.04 241.4l2.9 1.48 2.26 2.28 1.5 2.88.52 3.24-.5.08.5.08-.53 3.24-1.5 2.9-2.27 2.26-2.9 1.5-3.3.53-3.33-.54-2.88-1.5-2.28-2.26-1.5-2.9-.52-3.3.53-3.33 1.5-2.88 2.27-2.28 2.88-1.5 3.32-.52zm-6.32.95l-2.6 1.35-2.06 2.06-1.35 2.6-.47 3 .48 3 1.36 2.6 2.05 2.07 2.62 1.34 3 .5 3-.5 2.6-1.34 2.06-2.06 1.35-2.6.5-3-.5-3-1.35-2.6-2.05-2.07-2.6-1.35-3-.48z" fill="#999"/><path d="M880 427.92c0-4.42 3.58-8 8-8h284c4.42 0 8 3.58 8 8v364c0 4.4-3.58 8-8 8H888c-4.42 0-8-3.6-8-8z" fill="#fff"/><path d="M880 419.92h300v40H880z" fill="#ccc"/><path d="M880 427.92c0-4.42 3.58-8 8-8h284c4.42 0 8 3.58 8 8v364c0 4.4-3.58 8-8 8H888c-4.42 0-8-3.6-8-8zM880 459.92h300M1030 459.92v340" stroke="#666" fill="none"/><use xlink:href="#x" transform="matrix(1,0,0,1,890,419.91573379764804) translate(14 27.14666666666667)"/><use xlink:href="#y" transform="matrix(1,0,0,1,885,462.41573379764804) translate(14 21.64666666666667)"/><use xlink:href="#c" transform="matrix(1,0,0,1,1035,462.41573379764804) translate(14 21.64666666666667)"/><use xlink:href="#d" transform="matrix(1,0,0,1,1035,462.41573379764804) translate(76.11555555555555 21.64666666666667)"/><use xlink:href="#z" transform="matrix(1,0,0,1,885,496.41573379764804) translate(14 21.64666666666667)"/><use xlink:href="#c" transform="matrix(1,0,0,1,1035,496.41573379764804) translate(14 21.64666666666667)"/><use xlink:href="#s" transform="matrix(1,0,0,1,1035,496.41573379764804) translate(76.11555555555555 21.64666666666667)"/><use xlink:href="#A" transform="matrix(1,0,0,1,885,530.415733797648) translate(14 21.64666666666667)"/><use xlink:href="#c" transform="matrix(1,0,0,1,1035,530.415733797648) translate(14 21.64666666666667)"/><use xlink:href="#s" transform="matrix(1,0,0,1,1035,530.415733797648) translate(76.11555555555555 21.64666666666667)"/><use xlink:href="#B" transform="matrix(1,0,0,1,885,564.415733797648) translate(14 21.64666666666667)"/><use xlink:href="#c" transform="matrix(1,0,0,1,1035,564.415733797648) translate(14 21.64666666666667)"/><use xlink:href="#s" transform="matrix(1,0,0,1,1035,564.415733797648) translate(76.11555555555555 21.64666666666667)"/><use xlink:href="#C" transform="matrix(1,0,0,1,885,598.415733797648) translate(14 21.64666666666667)"/><use xlink:href="#w" transform="matrix(1,0,0,1,1035,598.415733797648) translate(14 21.64666666666667)"/><use xlink:href="#D" transform="matrix(1,0,0,1,885,632.415733797648) translate(14 21.64666666666667)"/><use xlink:href="#p" transform="matrix(1,0,0,1,1035,632.415733797648) translate(14 21.64666666666667)"/><use xlink:href="#E" transform="matrix(1,0,0,1,885,666.415733797648) translate(14 21.64666666666667)"/><use xlink:href="#w" transform="matrix(1,0,0,1,1035,666.415733797648) translate(14 21.64666666666667)"/><use xlink:href="#F" transform="matrix(1,0,0,1,885,700.415733797648) translate(14 21.64666666666667)"/><use xlink:href="#p" transform="matrix(1,0,0,1,1035,700.415733797648) translate(14 21.64666666666667)"/><use xlink:href="#G" transform="matrix(1,0,0,1,885,734.415733797648) translate(14 21.64666666666667)"/><use xlink:href="#w" transform="matrix(1,0,0,1,1035,734.415733797648) translate(14 21.64666666666667)"/><use xlink:href="#H" transform="matrix(1,0,0,1,885,768.415733797648) translate(14 21.64666666666667)"/><use xlink:href="#p" transform="matrix(1,0,0,1,1035,768.415733797648) translate(14 21.64666666666667)"/><path d="M440 52.64c0-4.42 3.58-8 8-8h264c4.42 0 8 3.58 8 8v160c0 4.42-3.58 8-8 8H448c-4.42 0-8-3.58-8-8z" fill="#fff"/><path d="M440 44.64h280v40H440z" fill="#ccc"/><path d="M440 52.64c0-4.42 3.58-8 8-8h264c4.42 0 8 3.58 8 8v160c0 4.42-3.58 8-8 8H448c-4.42 0-8-3.58-8-8zM440 84.64h280M580 84.64v136" stroke="#666" fill="none"/><use xlink:href="#I" transform="matrix(1,0,0,1,450,44.63936323492983) translate(14 27.14666666666667)"/><use xlink:href="#J" transform="matrix(1,0,0,1,445,87.13936323492983) translate(14 21.64666666666667)"/><use xlink:href="#c" transform="matrix(1,0,0,1,585,87.13936323492983) translate(14 21.64666666666667)"/><use xlink:href="#d" transform="matrix(1,0,0,1,585,87.13936323492983) translate(76.11555555555555 21.64666666666667)"/><use xlink:href="#K" transform="matrix(1,0,0,1,445,121.13936323492983) translate(14 21.64666666666667)"/><use xlink:href="#c" transform="matrix(1,0,0,1,585,121.13936323492983) translate(14 21.64666666666667)"/><use xlink:href="#s" transform="matrix(1,0,0,1,585,121.13936323492983) translate(76.11555555555555 21.64666666666667)"/><use xlink:href="#L" transform="matrix(1,0,0,1,445,155.13936323492982) translate(14 21.64666666666667)"/><use xlink:href="#c" transform="matrix(1,0,0,1,585,155.13936323492982) translate(14 21.64666666666667)"/><use xlink:href="#s" transform="matrix(1,0,0,1,585,155.13936323492982) translate(76.11555555555555 21.64666666666667)"/><use xlink:href="#M" transform="matrix(1,0,0,1,445,189.13936323492982) translate(14 21.64666666666667)"/><use xlink:href="#j" transform="matrix(1,0,0,1,585,189.13936323492982) translate(14 21.64666666666667)"/><path d="M380.5 439.92h38.04c.8 0 1.46-.66 1.46-1.46 0-.8.65-1.46 1.46-1.46H440" stroke="#999" fill="none"/><path fill="#fff"/><path d="M381 449.92h-1v-20h1z" fill="#999"/><path fill="#fff"/><path d="M380.5 440.42h-20v-1h20z" fill="#999"/><path d="M479.28 447l-20-10 20-10z" fill="#fff"/><path d="M479.5 427.45L460.4 437l19.1 9.55-.45.9-20.9-10.45 20.9-10.45z" fill="#999"/><path fill="#fff"/><path d="M479.28 437.5h-20v-1h20z" fill="#999"/><path d="M459.28 437l-.5 3.16-1.43 2.75-2.17 2.17-2.74 1.42-3.16.5-3.16-.5-2.75-1.43-2.16-2.16-1.4-2.74-.52-3.16.5-3.16 1.43-2.75 2.17-2.17 2.75-1.42 3.16-.5 3.16.5 2.74 1.43 2.17 2.16 1.42 2.74.5 3.16z" fill="#fff"/><path d="M452.6 427.03l2.88 1.5 2.28 2.27 1.5 2.88.5 3.24-.48.08.5.08-.53 3.24-1.5 2.88-2.27 2.28-2.88 1.5-3.32.53-3.32-.53-2.9-1.5-2.26-2.27-1.5-2.88-.53-3.32.54-3.32 1.5-2.88 2.27-2.28 2.9-1.5 3.3-.53zm-6.33.96l-2.6 1.34-2.06 2.05-1.33 2.6-.5 3 .5 3 1.34 2.6 2.07 2.06 2.6 1.35 3 .5 3-.5 2.6-1.34 2.07-2.05 1.35-2.6.47-3-.48-3-1.36-2.6-2.06-2.06-2.6-1.35-3-.5z" fill="#999"/><path d="M800 69.64c0-4.42 3.58-8 8-8h264c4.42 0 8 3.58 8 8v126c0 4.42-3.58 8-8 8H808c-4.42 0-8-3.58-8-8z" fill="#fff"/><path d="M800 61.64h280v40H800z" fill="#ccc"/><path d="M800 69.64c0-4.42 3.58-8 8-8h264c4.42 0 8 3.58 8 8v126c0 4.42-3.58 8-8 8H808c-4.42 0-8-3.58-8-8zM800 101.64h280M940 101.64v102" stroke="#666" fill="none"/><use xlink:href="#N" transform="matrix(1,0,0,1,810,61.63936323492982) translate(14 27.14666666666667)"/><use xlink:href="#O" transform="matrix(1,0,0,1,805,104.13936323492982) translate(14 21.64666666666667)"/><use xlink:href="#c" transform="matrix(1,0,0,1,945,104.13936323492982) translate(14 21.64666666666667)"/><use xlink:href="#d" transform="matrix(1,0,0,1,945,104.13936323492982) translate(76.11555555555555 21.64666666666667)"/><use xlink:href="#r" transform="matrix(1,0,0,1,805,138.13936323492982) translate(14 21.64666666666667)"/><use xlink:href="#c" transform="matrix(1,0,0,1,945,138.13936323492982) translate(14 21.64666666666667)"/><use xlink:href="#s" transform="matrix(1,0,0,1,945,138.13936323492982) translate(76.11555555555555 21.64666666666667)"/><use xlink:href="#P" transform="matrix(1,0,0,1,805,172.13936323492982) translate(14 21.64666666666667)"/><use xlink:href="#f" transform="matrix(1,0,0,1,945,172.13936323492982) translate(14 21.64666666666667)"/><path d="M689.13 359.5v-60.18c0-4.14 3.36-7.5 7.5-7.5H941.7c4.14 0 7.5-3.36 7.5-7.5v-40.68" stroke="#999" fill="none"/><path fill="#fff"/><path d="M699.13 360h-20v-1h20z" fill="#999"/><path fill="#fff"/><path d="M689.63 379.5h-1v-20h1z" fill="#999"/><path d="M959.2 204.36l-10 20-10-20z" fill="#fff"/><path d="M959.64 204.6l-10.45 20.88-10.45-20.9.9-.44 9.54 19.1 9.55-19.1z" fill="#999"/><path fill="#fff"/><path d="M949.7 224.36h-1v-20h1z" fill="#999"/><path d="M959.2 234.36l-.52 3.16-1.4 2.75-2.18 2.16-2.74 1.42-3.17.5-3.17-.5-2.74-1.42-2.18-2.16-1.42-2.75-.5-3.16.5-3.16 1.42-2.74 2.17-2.17 2.73-1.43 3.16-.5 3.16.5 2.74 1.42 2.17 2.16 1.4 2.74.52 3.16z" fill="#fff"/><path d="M952.5 224.4l2.9 1.48 2.27 2.28 1.5 2.88.52 3.24-.5.08.5.08-.53 3.24-1.5 2.9-2.27 2.26-2.9 1.5-3.3.53-3.32-.54-2.9-1.5-2.26-2.26-1.5-2.9-.53-3.3.52-3.33 1.5-2.88 2.27-2.28 2.88-1.5 3.3-.52zm-6.3.95l-2.6 1.35-2.07 2.06-1.34 2.6-.5 3 .5 3 1.33 2.6 2.06 2.07 2.6 1.34 3 .5 3-.5 2.6-1.34 2.06-2.06 1.34-2.6.5-3-.5-3-1.34-2.6-2.06-2.07-2.6-1.35-3-.48z" fill="#999"/><path d="M80 52.64c0-4.42 3.58-8 8-8h264c4.42 0 8 3.58 8 8v194c0 4.42-3.58 8-8 8H88c-4.42 0-8-3.58-8-8z" fill="#fff"/><path d="M80 44.64h280v40H80z" fill="#ccc"/><path d="M80 52.64c0-4.42 3.58-8 8-8h264c4.42 0 8 3.58 8 8v194c0 4.42-3.58 8-8 8H88c-4.42 0-8-3.58-8-8zM80 84.64h280M220 84.64v170" stroke="#666" fill="none"/><use xlink:href="#Q" transform="matrix(1,0,0,1,90,44.63936323492983) translate(14 27.14666666666667)"/><use xlink:href="#R" transform="matrix(1,0,0,1,85,87.13936323492983) translate(14 21.64666666666667)"/><use xlink:href="#c" transform="matrix(1,0,0,1,225,87.13936323492983) translate(14 21.64666666666667)"/><use xlink:href="#d" transform="matrix(1,0,0,1,225,87.13936323492983) translate(76.11555555555555 21.64666666666667)"/><use xlink:href="#K" transform="matrix(1,0,0,1,85,121.13936323492983) translate(14 21.64666666666667)"/><use xlink:href="#c" transform="matrix(1,0,0,1,225,121.13936323492983) translate(14 21.64666666666667)"/><use xlink:href="#s" transform="matrix(1,0,0,1,225,121.13936323492983) translate(76.11555555555555 21.64666666666667)"/><use xlink:href="#L" transform="matrix(1,0,0,1,85,155.13936323492982) translate(14 21.64666666666667)"/><use xlink:href="#c" transform="matrix(1,0,0,1,225,155.13936323492982) translate(14 21.64666666666667)"/><use xlink:href="#s" transform="matrix(1,0,0,1,225,155.13936323492982) translate(76.11555555555555 21.64666666666667)"/><use xlink:href="#S" transform="matrix(1,0,0,1,85,189.13936323492982) translate(14 21.64666666666667)"/><use xlink:href="#T" transform="matrix(1,0,0,1,225,189.13936323492982) translate(14 21.64666666666667)"/><use xlink:href="#U" transform="matrix(1,0,0,1,85,223.13936323492982) translate(14 21.64666666666667)"/><use xlink:href="#p" transform="matrix(1,0,0,1,225,223.13936323492982) translate(14 21.64666666666667)"/><path d="M127.45 399.42V337.3v-.02h-.02v-42.64" stroke="#999" fill="none"/><path fill="#fff"/><path d="M137.45 399.92h-20v-1h20z" fill="#999"/><path fill="#fff"/><path d="M127.95 419.42h-1v-20h1z" fill="#999"/><path d="M137.43 255.36l-10 20-10-20z" fill="#fff"/><path d="M137.88 255.6l-10.45 20.88-10.45-20.9.9-.44 9.55 19.1 9.55-19.1z" fill="#999"/><path fill="#fff"/><path d="M127.93 275.36h-1v-20h1z" fill="#999"/><path d="M137.43 285.36l-.5 3.16-1.43 2.75-2.17 2.16-2.74 1.42-3.17.5-3.16-.5-2.75-1.42-2.16-2.16-1.42-2.75-.5-3.16.5-3.16 1.42-2.74 2.16-2.17 2.75-1.43 3.16-.5 3.16.5 2.73 1.42 2.17 2.16 1.42 2.74.5 3.16z" fill="#fff"/><path d="M130.75 275.4l2.88 1.48 2.28 2.28 1.5 2.88.52 3.24-.5.08.5.08-.52 3.24-1.5 2.9-2.27 2.26-2.88 1.5-3.32.53-3.32-.54-2.88-1.5-2.27-2.26-1.5-2.9-.53-3.3.54-3.33 1.5-2.88 2.26-2.28 2.9-1.5 3.3-.52zm-6.32.95l-2.6 1.35-2.06 2.06-1.35 2.6-.48 3 .48 3 1.35 2.6 2.05 2.07 2.6 1.34 3 .5 3-.5 2.62-1.34 2.05-2.06 1.34-2.6.48-3-.48-3-1.35-2.6-2.06-2.07-2.6-1.35-3-.48z" fill="#999"/><path d="M380.5 714.92H840" stroke="#999" fill="none"/><path fill="#fff"/><path d="M381 724.92h-1v-20h1z" fill="#999"/><path fill="#fff"/><path d="M380.5 715.42h-20v-1h20z" fill="#999"/><path d="M879.28 724.92l-20-10 20-10z" fill="#fff"/><path d="M879.5 705.36l-19.1 9.56 19.1 9.55-.45.9-20.9-10.45 20.9-10.45z" fill="#999"/><path fill="#fff"/><path d="M879.28 715.42h-20v-1h20z" fill="#999"/><path d="M859.28 714.92l-.5 3.16-1.43 2.74-2.17 2.17-2.74 1.4-3.16.52-3.16-.5-2.75-1.43-2.16-2.18-1.4-2.74-.52-3.16.5-3.17 1.43-2.74 2.17-2.15 2.75-1.42 3.16-.5 3.16.5 2.74 1.42 2.17 2.16 1.42 2.75.5 3.17z" fill="#fff"/><path d="M852.6 704.94l2.88 1.5 2.28 2.27 1.5 2.9.5 3.24-.48.08.5.08-.53 3.24-1.5 2.88-2.27 2.27-2.88 1.5-3.32.52-3.32-.53-2.9-1.5-2.26-2.28-1.5-2.88-.53-3.32.54-3.32 1.5-2.9 2.27-2.26 2.9-1.5 3.3-.53zm-6.33.97l-2.6 1.35-2.06 2.06-1.33 2.6-.5 3.02.5 3 1.34 2.6 2.07 2.06 2.6 1.35 3 .48 3-.47 2.6-1.35 2.07-2.06 1.35-2.6.47-3-.48-3-1.36-2.6-2.06-2.07-2.6-1.34-3-.48z" fill="#999"/><path d="M480 757.36c0-4.42 3.58-8 8-8h264c4.42 0 8 3.58 8 8v364c0 4.42-3.58 8-8 8H488c-4.42 0-8-3.58-8-8z" fill="#fff"/><path d="M480 749.36h280v40H480z" fill="#ccc"/><path d="M480 757.36c0-4.42 3.58-8 8-8h264c4.42 0 8 3.58 8 8v364c0 4.42-3.58 8-8 8H488c-4.42 0-8-3.58-8-8zM480 789.36h280M620 789.36v340" stroke="#666" fill="none"/><use xlink:href="#V" transform="matrix(1,0,0,1,490,749.3606367650702) translate(14 27.14666666666667)"/><use xlink:href="#W" transform="matrix(1,0,0,1,485,791.8606367650702) translate(14 21.64666666666667)"/><use xlink:href="#X" transform="matrix(1,0,0,1,485,791.8606367650702) translate(53.94666666666667 21.64666666666667)"/><use xlink:href="#Y" transform="matrix(1,0,0,1,625,791.8606367650702) translate(14 21.64666666666667)"/><use xlink:href="#W" transform="matrix(1,0,0,1,485,825.8606367650702) translate(14 21.64666666666667)"/><use xlink:href="#Z" transform="matrix(1,0,0,1,485,825.8606367650702) translate(53.94666666666667 21.64666666666667)"/><use xlink:href="#Y" transform="matrix(1,0,0,1,625,825.8606367650702) translate(14 21.64666666666667)"/><use xlink:href="#aa" transform="matrix(1,0,0,1,485,859.8606367650702) translate(14 21.64666666666667)"/><use xlink:href="#ab" transform="matrix(1,0,0,1,625,859.8606367650702) translate(14 21.64666666666667)"/><use xlink:href="#ac" transform="matrix(1,0,0,1,485,893.8606367650702) translate(14 21.64666666666667)"/><use xlink:href="#ab" transform="matrix(1,0,0,1,625,893.8606367650702) translate(14 21.64666666666667)"/><use xlink:href="#ad" transform="matrix(1,0,0,1,485,927.8606367650702) translate(14 21.64666666666667)"/><use xlink:href="#ae" transform="matrix(1,0,0,1,485,927.8606367650702) translate(72.43555555555555 21.64666666666667)"/><use xlink:href="#Y" transform="matrix(1,0,0,1,625,927.8606367650702) translate(14 21.64666666666667)"/><use xlink:href="#af" transform="matrix(1,0,0,1,485,961.8606367650702) translate(14 21.64666666666667)"/><use xlink:href="#ag" transform="matrix(1,0,0,1,625,961.8606367650702) translate(14 21.64666666666667)"/><use xlink:href="#ah" transform="matrix(1,0,0,1,485,995.8606367650702) translate(14 21.64666666666667)"/><use xlink:href="#ai" transform="matrix(1,0,0,1,485,995.8606367650702) translate(54.071111111111115 21.64666666666667)"/><g><use xlink:href="#Y" transform="matrix(1,0,0,1,625,995.8606367650702) translate(14 21.64666666666667)"/></g><g><use xlink:href="#aj" transform="matrix(1,0,0,1,485,1029.8606367650702) translate(14 21.64666666666667)"/><use xlink:href="#ak" transform="matrix(1,0,0,1,485,1029.8606367650702) translate(46.21333333333333 21.64666666666667)"/></g><g><use xlink:href="#ab" transform="matrix(1,0,0,1,625,1029.8606367650702) translate(14 21.64666666666667)"/></g><g><use xlink:href="#al" transform="matrix(1,0,0,1,485,1063.8606367650702) translate(14 21.64666666666667)"/></g><g><use xlink:href="#ag" transform="matrix(1,0,0,1,625,1063.8606367650702) translate(14 21.64666666666667)"/></g><g><use xlink:href="#am" transform="matrix(1,0,0,1,485,1097.8606367650702) translate(14 21.64666666666667)"/></g><g><use xlink:href="#ab" transform="matrix(1,0,0,1,625,1097.8606367650702) translate(14 21.64666666666667)"/></g><path d="M620 610.5v51.68c0 4.14 3.36 7.5 7.5 7.5h23.74c4.14 0 7.5 3.36 7.5 7.5v32.18" stroke="#999" fill="none"/><path fill="#fff"/><path d="M630 611h-20v-1h20z" fill="#999"/><path fill="#fff"/><path d="M620.5 610.5h-1v-20h1z" fill="#999"/><path d="M648.74 748.64l10-20 10 20z" fill="#fff"/><path d="M669.2 748.4l-.9.46-9.56-19.1-9.55 19.1-.9-.45 10.44-20.88z" fill="#999"/><path fill="#fff"/><path d="M659.24 748.64h-1v-20h1z" fill="#999"/><path d="M668.74 718.64l-.5 3.16-1.43 2.74-2.15 2.17-2.75 1.43-3.16.5-3.16-.5-2.75-1.42-2.16-2.16-1.42-2.74-.5-3.16.5-3.16 1.42-2.75 2.16-2.16 2.75-1.42 3.16-.5 3.16.5 2.75 1.42 2.16 2.16 1.43 2.75.5 3.16z" fill="#fff"/><path d="M662.06 708.67l2.88 1.5 2.28 2.26 1.5 2.9.5 3.23-.48.08.5.08-.53 3.24-1.48 2.88-2.28 2.28-2.88 1.5-3.32.52-3.32-.53-2.88-1.48-2.28-2.28-1.5-2.88-.53-3.32.54-3.32 1.5-2.9 2.27-2.26 2.88-1.5 3.32-.53zm-6.32.96l-2.6 1.34-2.06 2.06-1.35 2.6-.48 3 .48 3 1.35 2.6 2.05 2.07 2.6 1.35 3 .48 3-.48 2.62-1.35 2.05-2.06 1.35-2.6.48-3-.48-3-1.35-2.6-2.05-2.07-2.6-1.34-3-.5z" fill="#999"/><defs><path d="M167-177c0 86 45 111 131 112 125 1 158-86 181-191l94-444h76l-98 467C521-89 459 9 286 9 160 9 87-42 87-165c0-27 4-58 11-93l93-442h80l-93 443c-7 29-11 56-11 80" id="an"/><path d="M31-83c63 42 236 56 228-58-6-81-88-93-132-137-24-24-46-51-46-99 1-136 198-164 311-108l-25 60c-54-32-214-43-206 48 7 73 91 83 132 127 23 25 46 55 46 103C339 16 128 45 3-20" id="ao"/><path d="M455-392c-7 132-163 160-322 150-22 89-1 190 95 190 54 0 109-23 137-45l24 48c-40 36-107 60-178 61C104 13 50-55 50-162c2-159 65-270 168-326 94-50 243-22 237 96zm-77 3c0-83-128-66-170-21-25 27-47 62-61 112 101-4 231 5 231-91" id="ap"/><path d="M198-414c33-55 92-113 184-86l-20 66c-93-22-154 43-182 106L111 0H36l106-500h52v86h4" id="aq"/><g id="a"><use transform="matrix(0.017777777777777778,0,0,0.017777777777777778,0,0)" xlink:href="#an"/><use transform="matrix(0.017777777777777778,0,0,0.017777777777777778,10.986666666666666,0)" xlink:href="#ao"/><use transform="matrix(0.017777777777777778,0,0,0.017777777777777778,18.06222222222222,0)" xlink:href="#ap"/><use transform="matrix(0.017777777777777778,0,0,0.017777777777777778,26.293333333333333,0)" xlink:href="#aq"/></g><path d="M163 12C61 18 50-81 70-175l68-325h75c-25 128-57 249-76 383-8 61 51 79 99 53 49-26 92-70 119-118l67-318h75c-30 165-80 310-86 500h-59v-95h-4C305-42 253 7 163 12" id="ar"/><path d="M-44 137h408v68H-44v-68" id="as"/><path d="M160-500h75L129 0H54zm70-99c-30 0-54-24-54-54s24-55 54-55 55 25 55 55-25 54-55 54" id="at"/><path d="M200-476c53-38 150-42 212-16l44-208h75c-41 201-90 395-124 601-6 36-6 67-2 101h-50l-14-87h-4c-37 48-86 97-167 97-179 0-122-311-53-404 24-32 51-61 83-84zm-58 215c-24 91-18 254 99 197 43-21 78-60 101-101l56-260c-40-25-127-29-167 5-43 36-71 93-89 159" id="au"/><g id="b"><use transform="matrix(0.017777777777777778,0,0,0.017777777777777778,0,0)" xlink:href="#ar"/><use transform="matrix(0.017777777777777778,0,0,0.017777777777777778,9.084444444444445,0)" xlink:href="#ao"/><use transform="matrix(0.017777777777777778,0,0,0.017777777777777778,16.16,0)" xlink:href="#ap"/><use transform="matrix(0.017777777777777778,0,0,0.017777777777777778,24.391111111111112,0)" xlink:href="#aq"/><use transform="matrix(0.017777777777777778,0,0,0.017777777777777778,30.204444444444444,0)" xlink:href="#as"/><use transform="matrix(0.017777777777777778,0,0,0.017777777777777778,37.45777777777778,0)" xlink:href="#at"/><use transform="matrix(0.017777777777777778,0,0,0.017777777777777778,42.062222222222225,0)" xlink:href="#au"/></g><path d="M261-458l-34-103h-3l-12 103L115 0H40l151-711h40l218 468 33 98h4l9-98 98-457h75L517 11h-37" id="av"/><path d="M637-301c9-53 36-154-35-147-78 7-123 76-157 133L380 0h-75c24-131 60-252 76-392 7-60-53-66-93-43-45 26-85 70-111 114L111 0H36l106-500h53l-6 86h4c46-46 94-96 183-98 64-1 74 43 76 106 43-50 94-101 180-106 114-6 101 111 80 212L649 0h-75" id="aw"/><path d="M376-512c141-5 123 202 88 306C417-66 290 45 102-3c-27-7-46-17-59-28l142-669h75l-61 286h4c40-48 88-95 173-98zm14 288c29-80 39-278-89-212-52 27-96 74-124 125L127-76c37 24 107 30 152 2 51-32 87-85 111-150" id="ax"/><g id="c"><use transform="matrix(0.017777777777777778,0,0,0.017777777777777778,0,0)" xlink:href="#av"/><use transform="matrix(0.017777777777777778,0,0,0.017777777777777778,11.413333333333334,0)" xlink:href="#ar"/><use transform="matrix(0.017777777777777778,0,0,0.017777777777777778,20.497777777777777,0)" xlink:href="#aw"/><use transform="matrix(0.017777777777777778,0,0,0.017777777777777778,34.06222222222222,0)" xlink:href="#ax"/><use transform="matrix(0.017777777777777778,0,0,0.017777777777777778,43.32444444444444,0)" xlink:href="#ap"/><use transform="matrix(0.017777777777777778,0,0,0.017777777777777778,51.55555555555555,0)" xlink:href="#aq"/></g><path d="M132-85c0 103 22 190 59 268l-46 35C9 58 49-267 139-443c52-102 120-196 197-267l37 35C245-526 132-352 132-85" id="ay"/><path d="M566-527c0 213-171 281-390 261L120 0H40l147-693c48-12 106-15 163-15 129 1 216 52 216 181zm-84 8c0-119-117-127-229-111l-61 291c157 21 290-24 290-180" id="az"/><path d="M239-324h-51L120 0H40l148-700h80l-70 326 40-14 287-312h99L338-396l-46 31 39 40L506 0h-91" id="aA"/><path d="M72-80c73-149 105-445 15-597l50-33c84 107 103 315 61 484C152-42 60 108-57 218l-38-35C-28 114 26 15 72-80" id="aB"/><g id="d"><use transform="matrix(0.017777777777777778,0,0,0.017777777777777778,0,0)" xlink:href="#ay"/><use transform="matrix(0.017777777777777778,0,0,0.017777777777777778,4.728888888888889,0)" xlink:href="#az"/><use transform="matrix(0.017777777777777778,0,0,0.017777777777777778,14.186666666666667,0)" xlink:href="#aA"/><use transform="matrix(0.017777777777777778,0,0,0.017777777777777778,24.42666666666667,0)" xlink:href="#aB"/></g><path d="M-92 132c45 15 113 25 134-24C53 83 65 45 74-8l70-428H67l13-64h73c20-105 28-212 157-212 45 0 88 10 120 24l-22 59c-51-18-116-34-147 7-17 21-26 80-33 122h101l-12 64h-98L139 34C125 144 71 233-66 204c-17-3-33-9-48-16" id="aC"/><path d="M328-85c-37 47-83 97-164 97C85 12 45-40 45-143c0-154 59-273 157-336 70-46 192-37 275-10-27 160-86 300-75 491h-56l-14-87h-4zM137-253c-15 73-33 201 50 201 75 0 114-63 146-113l56-270c-46-20-119-19-157 13-46 39-80 98-95 169" id="aD"/><g id="e"><use transform="matrix(0.017777777777777778,0,0,0.017777777777777778,0,0)" xlink:href="#aC"/><use transform="matrix(0.017777777777777778,0,0,0.017777777777777778,5.0311111111111115,0)" xlink:href="#at"/><use transform="matrix(0.017777777777777778,0,0,0.017777777777777778,9.635555555555555,0)" xlink:href="#aq"/><use transform="matrix(0.017777777777777778,0,0,0.017777777777777778,15.448888888888888,0)" xlink:href="#ap"/><use transform="matrix(0.017777777777777778,0,0,0.017777777777777778,23.68,0)" xlink:href="#ax"/><use transform="matrix(0.017777777777777778,0,0,0.017777777777777778,32.94222222222222,0)" xlink:href="#aD"/><use transform="matrix(0.017777777777777778,0,0,0.017777777777777778,41.599999999999994,0)" xlink:href="#ao"/><use transform="matrix(0.017777777777777778,0,0,0.017777777777777778,48.67555555555555,0)" xlink:href="#ap"/><use transform="matrix(0.017777777777777778,0,0,0.017777777777777778,56.90666666666666,0)" xlink:href="#as"/><use transform="matrix(0.017777777777777778,0,0,0.017777777777777778,64.16,0)" xlink:href="#at"/><use transform="matrix(0.017777777777777778,0,0,0.017777777777777778,68.76444444444444,0)" xlink:href="#au"/></g><path d="M58-98c90 55 337 67 330-82-5-113-124-128-186-190-34-34-65-74-65-143 0-179 176-219 352-190 31 6 55 14 72 23l-40 71c-90-48-309-54-300 86 8 115 123 129 186 191 34 34 66 74 65 142C469-47 358 12 201 12 126 12 60-2 17-25" id="aE"/><path d="M266-15c-25 15-77 27-117 27-78 0-101-52-86-125l68-323H56l15-64h74l21-99 80-23-26 122h131l-15 64H206c-22 115-55 222-68 342-7 68 99 39 128 18v61" id="aF"/><path d="M378-512c101-5 120 82 99 180L406 0h-75c25-128 58-249 77-383 8-65-65-78-115-53s-89 68-116 116L111 0H36l106-500h52l-4 86h4c42-50 94-94 184-98" id="aG"/><path d="M168 11C38 14 32-156 66-272c43-148 158-272 360-228 25 6 46 13 65 22L385 23c-26 117-80 185-209 189-72 2-130-24-171-45l33-56c51 35 174 59 227 1 35-38 55-128 69-197h-4c-38 48-80 94-162 96zm-25-274c-21 73-34 210 53 210 85 0 124-78 159-136l51-241c-47-21-121-22-162 9-48 35-82 91-101 158" id="aH"/><g id="f"><use transform="matrix(0.017777777777777778,0,0,0.017777777777777778,0,0)" xlink:href="#aE"/><use transform="matrix(0.017777777777777778,0,0,0.017777777777777778,8.977777777777778,0)" xlink:href="#aF"/><use transform="matrix(0.017777777777777778,0,0,0.017777777777777778,14.542222222222222,0)" xlink:href="#aq"/><use transform="matrix(0.017777777777777778,0,0,0.017777777777777778,20.355555555555554,0)" xlink:href="#at"/><use transform="matrix(0.017777777777777778,0,0,0.017777777777777778,24.96,0)" xlink:href="#aG"/><use transform="matrix(0.017777777777777778,0,0,0.017777777777777778,34.24,0)" xlink:href="#aH"/></g><g id="g"><use transform="matrix(0.017777777777777778,0,0,0.017777777777777778,0,0)" xlink:href="#ar"/><use transform="matrix(0.017777777777777778,0,0,0.017777777777777778,9.084444444444445,0)" xlink:href="#ao"/><use transform="matrix(0.017777777777777778,0,0,0.017777777777777778,16.16,0)" xlink:href="#ap"/><use transform="matrix(0.017777777777777778,0,0,0.017777777777777778,24.391111111111112,0)" xlink:href="#aq"/><use transform="matrix(0.017777777777777778,0,0,0.017777777777777778,30.204444444444444,0)" xlink:href="#aG"/><use transform="matrix(0.017777777777777778,0,0,0.017777777777777778,39.48444444444444,0)" xlink:href="#aD"/><use transform="matrix(0.017777777777777778,0,0,0.017777777777777778,48.142222222222216,0)" xlink:href="#aw"/><use transform="matrix(0.017777777777777778,0,0,0.017777777777777778,61.70666666666666,0)" xlink:href="#ap"/></g><path d="M220-10C163 16 50 30 50-66c0-13 2-30 6-49l124-585h75L133-119c-5 28-7 64 21 64 31 0 41-3 66-12v57" id="aI"/><g id="h"><use transform="matrix(0.017777777777777778,0,0,0.017777777777777778,0,0)" xlink:href="#ap"/><use transform="matrix(0.017777777777777778,0,0,0.017777777777777778,8.231111111111112,0)" xlink:href="#aw"/><use transform="matrix(0.017777777777777778,0,0,0.017777777777777778,21.795555555555556,0)" xlink:href="#aD"/><use transform="matrix(0.017777777777777778,0,0,0.017777777777777778,30.453333333333333,0)" xlink:href="#at"/><use transform="matrix(0.017777777777777778,0,0,0.017777777777777778,35.05777777777778,0)" xlink:href="#aI"/></g><g id="i"><use transform="matrix(0.017777777777777778,0,0,0.017777777777777778,0,0)" xlink:href="#aI"/><use transform="matrix(0.017777777777777778,0,0,0.017777777777777778,4.8,0)" xlink:href="#aD"/><use transform="matrix(0.017777777777777778,0,0,0.017777777777777778,13.457777777777778,0)" xlink:href="#aF"/><use transform="matrix(0.017777777777777778,0,0,0.017777777777777778,19.022222222222222,0)" xlink:href="#at"/><use transform="matrix(0.017777777777777778,0,0,0.017777777777777778,23.626666666666665,0)" xlink:href="#aF"/><use transform="matrix(0.017777777777777778,0,0,0.017777777777777778,29.191111111111105,0)" xlink:href="#ar"/><use transform="matrix(0.017777777777777778,0,0,0.017777777777777778,38.275555555555556,0)" xlink:href="#au"/><use transform="matrix(0.017777777777777778,0,0,0.017777777777777778,47.324444444444445,0)" xlink:href="#ap"/></g><g id="j"><use transform="matrix(0.017777777777777778,0,0,0.017777777777777778,0,0)" xlink:href="#av"/><use transform="matrix(0.017777777777777778,0,0,0.017777777777777778,11.413333333333334,0)" xlink:href="#ar"/><use transform="matrix(0.017777777777777778,0,0,0.017777777777777778,20.497777777777777,0)" xlink:href="#aw"/><use transform="matrix(0.017777777777777778,0,0,0.017777777777777778,34.06222222222222,0)" xlink:href="#ax"/><use transform="matrix(0.017777777777777778,0,0,0.017777777777777778,43.32444444444444,0)" xlink:href="#ap"/><use transform="matrix(0.017777777777777778,0,0,0.017777777777777778,51.55555555555555,0)" xlink:href="#aq"/></g><path d="M212 12C105 10 50-52 50-156c0-158 60-272 160-330 32-17 66-26 102-26 105 1 154 65 154 168 0 154-59 269-154 328-31 18-64 28-100 28zm160-242c22-84 35-232-75-218-119 15-167 140-167 274 0 73 23 122 92 122 92 0 128-95 150-178" id="aJ"/><g id="k"><use transform="matrix(0.017777777777777778,0,0,0.017777777777777778,0,0)" xlink:href="#aI"/><use transform="matrix(0.017777777777777778,0,0,0.017777777777777778,4.8,0)" xlink:href="#aJ"/><use transform="matrix(0.017777777777777778,0,0,0.017777777777777778,13.653333333333332,0)" xlink:href="#aG"/><use transform="matrix(0.017777777777777778,0,0,0.017777777777777778,22.93333333333333,0)" xlink:href="#aH"/><use transform="matrix(0.017777777777777778,0,0,0.017777777777777778,31.911111111111108,0)" xlink:href="#at"/><use transform="matrix(0.017777777777777778,0,0,0.017777777777777778,36.51555555555555,0)" xlink:href="#aF"/><use transform="matrix(0.017777777777777778,0,0,0.017777777777777778,42.08,0)" xlink:href="#ar"/><use transform="matrix(0.017777777777777778,0,0,0.017777777777777778,51.16444444444444,0)" xlink:href="#au"/><use transform="matrix(0.017777777777777778,0,0,0.017777777777777778,60.21333333333333,0)" xlink:href="#ap"/></g><g id="l"><use transform="matrix(0.017777777777777778,0,0,0.017777777777777778,0,0)" xlink:href="#aI"/><use transform="matrix(0.017777777777777778,0,0,0.017777777777777778,4.8,0)" xlink:href="#ap"/><use transform="matrix(0.017777777777777778,0,0,0.017777777777777778,13.031111111111112,0)" xlink:href="#aG"/><use transform="matrix(0.017777777777777778,0,0,0.017777777777777778,22.31111111111111,0)" xlink:href="#au"/><use transform="matrix(0.017777777777777778,0,0,0.017777777777777778,31.36,0)" xlink:href="#as"/><use transform="matrix(0.017777777777777778,0,0,0.017777777777777778,38.61333333333334,0)" xlink:href="#aq"/><use transform="matrix(0.017777777777777778,0,0,0.017777777777777778,44.426666666666655,0)" xlink:href="#aD"/><use transform="matrix(0.017777777777777778,0,0,0.017777777777777778,53.08444444444444,0)" xlink:href="#au"/><use transform="matrix(0.017777777777777778,0,0,0.017777777777777778,62.13333333333333,0)" xlink:href="#at"/><use transform="matrix(0.017777777777777778,0,0,0.017777777777777778,66.73777777777778,0)" xlink:href="#ar"/><use transform="matrix(0.017777777777777778,0,0,0.017777777777777778,75.82222222222222,0)" xlink:href="#ao"/></g><g id="m"><use transform="matrix(0.017777777777777778,0,0,0.017777777777777778,0,0)" xlink:href="#aG"/><use transform="matrix(0.017777777777777778,0,0,0.017777777777777778,9.28,0)" xlink:href="#aD"/><use transform="matrix(0.017777777777777778,0,0,0.017777777777777778,17.937777777777775,0)" xlink:href="#aw"/><use transform="matrix(0.017777777777777778,0,0,0.017777777777777778,31.50222222222222,0)" xlink:href="#ap"/></g><path d="M308-14c-56 32-142 33-194 6L70 200H-5l149-700h52l-5 86h4c40-48 85-95 170-98 145-6 128 202 93 308-29 85-81 150-150 190zm78-217c19-69 41-217-49-217-85 0-124 77-159 136L129-75c37 31 106 29 149 1 51-33 89-88 108-157" id="aK"/><path d="M145-500c18 140 49 267 54 420h5c56-152 136-280 204-420h80C392-320 297-137 200 42c-30 55-64 106-108 141-31 25-74 28-112 13l24-69c35 10 55 0 82-26 19-20 41-54 65-101L65-500h80" id="aL"/><g id="n"><use transform="matrix(0.017777777777777778,0,0,0.017777777777777778,0,0)" xlink:href="#aK"/><use transform="matrix(0.017777777777777778,0,0,0.017777777777777778,9.03111111111111,0)" xlink:href="#aD"/><use transform="matrix(0.017777777777777778,0,0,0.017777777777777778,17.68888888888889,0)" xlink:href="#aL"/><use transform="matrix(0.017777777777777778,0,0,0.017777777777777778,25.493333333333332,0)" xlink:href="#aw"/><use transform="matrix(0.017777777777777778,0,0,0.017777777777777778,39.05777777777777,0)" xlink:href="#ap"/><use transform="matrix(0.017777777777777778,0,0,0.017777777777777778,47.288888888888884,0)" xlink:href="#aG"/><use transform="matrix(0.017777777777777778,0,0,0.017777777777777778,56.568888888888885,0)" xlink:href="#aF"/><use transform="matrix(0.017777777777777778,0,0,0.017777777777777778,62.13333333333333,0)" xlink:href="#as"/><use transform="matrix(0.017777777777777778,0,0,0.017777777777777778,69.38666666666667,0)" xlink:href="#at"/><use transform="matrix(0.017777777777777778,0,0,0.017777777777777778,73.99111111111111,0)" xlink:href="#aG"/><use transform="matrix(0.017777777777777778,0,0,0.017777777777777778,83.27111111111111,0)" xlink:href="#aC"/><use transform="matrix(0.017777777777777778,0,0,0.017777777777777778,88.21333333333334,0)" xlink:href="#aJ"/></g><path d="M230-52c40 1 92-25 116-41l19 50c-38 30-89 55-153 55C105 12 50-47 50-148c0-165 66-280 173-339 62-34 153-31 210-2l-28 62c-43-22-119-32-163 2-64 50-109 135-112 246-1 78 31 125 100 127" id="aM"/><g id="o"><use transform="matrix(0.017777777777777778,0,0,0.017777777777777778,0,0)" xlink:href="#aM"/><use transform="matrix(0.017777777777777778,0,0,0.017777777777777778,7.466666666666667,0)" xlink:href="#aq"/><use transform="matrix(0.017777777777777778,0,0,0.017777777777777778,13.280000000000001,0)" xlink:href="#ap"/><use transform="matrix(0.017777777777777778,0,0,0.017777777777777778,21.511111111111113,0)" xlink:href="#aD"/><use transform="matrix(0.017777777777777778,0,0,0.017777777777777778,30.16888888888889,0)" xlink:href="#aF"/><use transform="matrix(0.017777777777777778,0,0,0.017777777777777778,35.733333333333334,0)" xlink:href="#ap"/><use transform="matrix(0.017777777777777778,0,0,0.017777777777777778,43.964444444444446,0)" xlink:href="#au"/><use transform="matrix(0.017777777777777778,0,0,0.017777777777777778,53.013333333333335,0)" xlink:href="#as"/><use transform="matrix(0.017777777777777778,0,0,0.017777777777777778,60.266666666666666,0)" xlink:href="#aD"/><use transform="matrix(0.017777777777777778,0,0,0.017777777777777778,68.92444444444445,0)" xlink:href="#aF"/></g><path d="M428-712l57 31-521 825-57-32" id="aN"/><path d="M620-449C620-149 457 34 120 7 73 3 47 2 40 1l149-701c47-7 121-8 173-8 169 2 258 89 258 259zm-84 11c6-165-108-219-283-191L135-69c87 8 174 3 232-32 104-63 163-181 169-337" id="aO"/><g id="p"><use transform="matrix(0.017777777777777778,0,0,0.017777777777777778,0,0)" xlink:href="#av"/><use transform="matrix(0.017777777777777778,0,0,0.017777777777777778,11.413333333333334,0)" xlink:href="#ar"/><use transform="matrix(0.017777777777777778,0,0,0.017777777777777778,20.497777777777777,0)" xlink:href="#aw"/><use transform="matrix(0.017777777777777778,0,0,0.017777777777777778,34.06222222222222,0)" xlink:href="#ax"/><use transform="matrix(0.017777777777777778,0,0,0.017777777777777778,43.32444444444444,0)" xlink:href="#ap"/><use transform="matrix(0.017777777777777778,0,0,0.017777777777777778,51.55555555555555,0)" xlink:href="#aq"/><use transform="matrix(0.017777777777777778,0,0,0.017777777777777778,57.36888888888888,0)" xlink:href="#aN"/><use transform="matrix(0.017777777777777778,0,0,0.017777777777777778,63.34222222222222,0)" xlink:href="#aO"/><use transform="matrix(0.017777777777777778,0,0,0.017777777777777778,74.39999999999998,0)" xlink:href="#aD"/><use transform="matrix(0.017777777777777778,0,0,0.017777777777777778,83.05777777777777,0)" xlink:href="#aF"/><use transform="matrix(0.017777777777777778,0,0,0.017777777777777778,88.62222222222222,0)" xlink:href="#ap"/></g><path d="M186-694c161-27 379-34 375 143-3 110-65 168-161 185v4c62 17 109 58 110 134C514 3 266 33 40-5zM133-71c142 22 296-2 293-146-3-108-125-107-240-105zm344-467c5-112-126-104-226-92l-51 240c147 6 270-11 277-148" id="aP"/><path d="M212-225h-54L111 0H36l148-700h75l-91 426 43-11 180-215h92L305-297l-47 33 38 39L408 0h-83" id="aQ"/><g id="q"><use transform="matrix(0.017777777777777778,0,0,0.017777777777777778,0,0)" xlink:href="#aP"/><use transform="matrix(0.017777777777777778,0,0,0.017777777777777778,9.884444444444444,0)" xlink:href="#aJ"/><use transform="matrix(0.017777777777777778,0,0,0.017777777777777778,18.73777777777778,0)" xlink:href="#aJ"/><use transform="matrix(0.017777777777777778,0,0,0.017777777777777778,27.59111111111111,0)" xlink:href="#aQ"/></g><g id="r"><use transform="matrix(0.017777777777777778,0,0,0.017777777777777778,0,0)" xlink:href="#ax"/><use transform="matrix(0.017777777777777778,0,0,0.017777777777777778,9.262222222222222,0)" xlink:href="#aJ"/><use transform="matrix(0.017777777777777778,0,0,0.017777777777777778,18.115555555555556,0)" xlink:href="#aJ"/><use transform="matrix(0.017777777777777778,0,0,0.017777777777777778,26.968888888888895,0)" xlink:href="#aQ"/><use transform="matrix(0.017777777777777778,0,0,0.017777777777777778,34.95111111111111,0)" xlink:href="#as"/><use transform="matrix(0.017777777777777778,0,0,0.017777777777777778,42.20444444444444,0)" xlink:href="#at"/><use transform="matrix(0.017777777777777778,0,0,0.017777777777777778,46.80888888888889,0)" xlink:href="#au"/></g><path d="M189-700h361l-15 74H252l-51 239h264l-15 74H186L120 0H40" id="aR"/><g id="s"><use transform="matrix(0.017777777777777778,0,0,0.017777777777777778,0,0)" xlink:href="#ay"/><use transform="matrix(0.017777777777777778,0,0,0.017777777777777778,4.728888888888889,0)" xlink:href="#aR"/><use transform="matrix(0.017777777777777778,0,0,0.017777777777777778,13.475555555555555,0)" xlink:href="#aA"/><use transform="matrix(0.017777777777777778,0,0,0.017777777777777778,23.715555555555557,0)" xlink:href="#aB"/></g><g id="t"><use transform="matrix(0.017777777777777778,0,0,0.017777777777777778,0,0)" xlink:href="#at"/><use transform="matrix(0.017777777777777778,0,0,0.017777777777777778,4.604444444444445,0)" xlink:href="#ao"/><use transform="matrix(0.017777777777777778,0,0,0.017777777777777778,11.68,0)" xlink:href="#ax"/><use transform="matrix(0.017777777777777778,0,0,0.017777777777777778,20.942222222222224,0)" xlink:href="#aG"/></g><g id="u"><use transform="matrix(0.017777777777777778,0,0,0.017777777777777778,0,0)" xlink:href="#aM"/><use transform="matrix(0.017777777777777778,0,0,0.017777777777777778,6.9511111111111115,0)" xlink:href="#aJ"/><use transform="matrix(0.017777777777777778,0,0,0.017777777777777778,15.804444444444446,0)" xlink:href="#aG"/><use transform="matrix(0.017777777777777778,0,0,0.017777777777777778,25.084444444444443,0)" xlink:href="#au"/><use transform="matrix(0.017777777777777778,0,0,0.017777777777777778,34.13333333333333,0)" xlink:href="#at"/><use transform="matrix(0.017777777777777778,0,0,0.017777777777777778,38.73777777777778,0)" xlink:href="#aF"/><use transform="matrix(0.017777777777777778,0,0,0.017777777777777778,44.30222222222223,0)" xlink:href="#at"/><use transform="matrix(0.017777777777777778,0,0,0.017777777777777778,48.90666666666667,0)" xlink:href="#aJ"/><use transform="matrix(0.017777777777777778,0,0,0.017777777777777778,57.760000000000005,0)" xlink:href="#aG"/></g><g id="v"><use transform="matrix(0.017777777777777778,0,0,0.017777777777777778,0,0)" xlink:href="#aI"/><use transform="matrix(0.017777777777777778,0,0,0.017777777777777778,4.8,0)" xlink:href="#aJ"/><use transform="matrix(0.017777777777777778,0,0,0.017777777777777778,13.653333333333332,0)" xlink:href="#aD"/><use transform="matrix(0.017777777777777778,0,0,0.017777777777777778,22.31111111111111,0)" xlink:href="#aG"/><use transform="matrix(0.017777777777777778,0,0,0.017777777777777778,31.59111111111111,0)" xlink:href="#ap"/><use transform="matrix(0.017777777777777778,0,0,0.017777777777777778,39.82222222222222,0)" xlink:href="#au"/></g><g id="w"><use transform="matrix(0.017777777777777778,0,0,0.017777777777777778,0,0)" xlink:href="#aP"/><use transform="matrix(0.017777777777777778,0,0,0.017777777777777778,9.884444444444444,0)" xlink:href="#aJ"/><use transform="matrix(0.017777777777777778,0,0,0.017777777777777778,18.73777777777778,0)" xlink:href="#aJ"/><use transform="matrix(0.017777777777777778,0,0,0.017777777777777778,27.59111111111111,0)" xlink:href="#aI"/><use transform="matrix(0.017777777777777778,0,0,0.017777777777777778,32.39111111111111,0)" xlink:href="#ap"/><use transform="matrix(0.017777777777777778,0,0,0.017777777777777778,40.62222222222222,0)" xlink:href="#aD"/><use transform="matrix(0.017777777777777778,0,0,0.017777777777777778,49.28,0)" xlink:href="#aG"/></g><path d="M544-535c0 129-82 203-201 222l36 36L487 0h-87L280-302l-94-15L120 0H40l147-693c52-10 101-15 159-15 118 0 198 53 198 173zm-84 4c0-99-104-119-207-99l-55 258c147 8 262-18 262-159" id="aS"/><path d="M165 12C27 15 35-163 68-274c47-159 214-297 416-203L340 200h-75l61-284h-4c-36 46-78 93-157 96zm-23-270c-19 67-39 206 44 206 87 0 129-85 164-147l50-231c-47-21-111-21-152 10-48 37-86 95-106 162" id="aT"/><g id="x"><use transform="matrix(0.017777777777777778,0,0,0.017777777777777778,0,0)" xlink:href="#aS"/><use transform="matrix(0.017777777777777778,0,0,0.017777777777777778,9.333333333333332,0)" xlink:href="#ap"/><use transform="matrix(0.017777777777777778,0,0,0.017777777777777778,17.564444444444444,0)" xlink:href="#aT"/><use transform="matrix(0.017777777777777778,0,0,0.017777777777777778,26.506666666666668,0)" xlink:href="#ar"/><use transform="matrix(0.017777777777777778,0,0,0.017777777777777778,35.59111111111111,0)" xlink:href="#ap"/><use transform="matrix(0.017777777777777778,0,0,0.017777777777777778,43.82222222222222,0)" xlink:href="#ao"/><use transform="matrix(0.017777777777777778,0,0,0.017777777777777778,50.897777777777776,0)" xlink:href="#aF"/></g><g id="y"><use transform="matrix(0.017777777777777778,0,0,0.017777777777777778,0,0)" xlink:href="#aq"/><use transform="matrix(0.017777777777777778,0,0,0.017777777777777778,5.8133333333333335,0)" xlink:href="#ap"/><use transform="matrix(0.017777777777777778,0,0,0.017777777777777778,14.044444444444444,0)" xlink:href="#aT"/><use transform="matrix(0.017777777777777778,0,0,0.017777777777777778,22.98666666666666,0)" xlink:href="#ar"/><use transform="matrix(0.017777777777777778,0,0,0.017777777777777778,32.07111111111111,0)" xlink:href="#ap"/><use transform="matrix(0.017777777777777778,0,0,0.017777777777777778,40.30222222222222,0)" xlink:href="#ao"/><use transform="matrix(0.017777777777777778,0,0,0.017777777777777778,47.37777777777777,0)" xlink:href="#aF"/><use transform="matrix(0.017777777777777778,0,0,0.017777777777777778,52.94222222222222,0)" xlink:href="#as"/><use transform="matrix(0.017777777777777778,0,0,0.017777777777777778,60.19555555555555,0)" xlink:href="#at"/><use transform="matrix(0.017777777777777778,0,0,0.017777777777777778,64.8,0)" xlink:href="#au"/></g><g id="z"><use transform="matrix(0.017777777777777778,0,0,0.017777777777777778,0,0)" xlink:href="#aI"/><use transform="matrix(0.017777777777777778,0,0,0.017777777777777778,4.8,0)" xlink:href="#ap"/><use transform="matrix(0.017777777777777778,0,0,0.017777777777777778,13.031111111111112,0)" xlink:href="#aG"/><use transform="matrix(0.017777777777777778,0,0,0.017777777777777778,22.31111111111111,0)" xlink:href="#au"/><use transform="matrix(0.017777777777777778,0,0,0.017777777777777778,31.36,0)" xlink:href="#ap"/><use transform="matrix(0.017777777777777778,0,0,0.017777777777777778,39.59111111111111,0)" xlink:href="#aq"/></g><path d="M427-500c18 129 48 245 52 388 52-140 124-259 186-388h76L472 11h-38l-53-330c-2-27 2-59-3-82l-37 83L151 11h-36L57-500h76c10 129 37 247 29 388h4l40-99 165-289h56" id="aU"/><g id="A"><use transform="matrix(0.017777777777777778,0,0,0.017777777777777778,0,0)" xlink:href="#ax"/><use transform="matrix(0.017777777777777778,0,0,0.017777777777777778,9.262222222222222,0)" xlink:href="#aJ"/><use transform="matrix(0.017777777777777778,0,0,0.017777777777777778,18.115555555555556,0)" xlink:href="#aq"/><use transform="matrix(0.017777777777777778,0,0,0.017777777777777778,23.92888888888889,0)" xlink:href="#aq"/><use transform="matrix(0.017777777777777778,0,0,0.017777777777777778,29.74222222222222,0)" xlink:href="#aJ"/><use transform="matrix(0.017777777777777778,0,0,0.017777777777777778,38.48888888888889,0)" xlink:href="#aU"/><use transform="matrix(0.017777777777777778,0,0,0.017777777777777778,50.666666666666664,0)" xlink:href="#ap"/><use transform="matrix(0.017777777777777778,0,0,0.017777777777777778,58.897777777777776,0)" xlink:href="#aq"/></g><g id="B"><use transform="matrix(0.017777777777777778,0,0,0.017777777777777778,0,0)" xlink:href="#ax"/><use transform="matrix(0.017777777777777778,0,0,0.017777777777777778,9.262222222222222,0)" xlink:href="#aJ"/><use transform="matrix(0.017777777777777778,0,0,0.017777777777777778,18.115555555555556,0)" xlink:href="#aJ"/><use transform="matrix(0.017777777777777778,0,0,0.017777777777777778,26.968888888888895,0)" xlink:href="#aQ"/></g><g id="C"><use transform="matrix(0.017777777777777778,0,0,0.017777777777777778,0,0)" xlink:href="#aI"/><use transform="matrix(0.017777777777777778,0,0,0.017777777777777778,4.8,0)" xlink:href="#ap"/><use transform="matrix(0.017777777777777778,0,0,0.017777777777777778,13.031111111111112,0)" xlink:href="#aG"/><use transform="matrix(0.017777777777777778,0,0,0.017777777777777778,22.31111111111111,0)" xlink:href="#aF"/></g><g id="D"><use transform="matrix(0.017777777777777778,0,0,0.017777777777777778,0,0)" xlink:href="#aI"/><use transform="matrix(0.017777777777777778,0,0,0.017777777777777778,4.8,0)" xlink:href="#ap"/><use transform="matrix(0.017777777777777778,0,0,0.017777777777777778,13.031111111111112,0)" xlink:href="#aG"/><use transform="matrix(0.017777777777777778,0,0,0.017777777777777778,22.31111111111111,0)" xlink:href="#aF"/><use transform="matrix(0.017777777777777778,0,0,0.017777777777777778,27.875555555555554,0)" xlink:href="#as"/><use transform="matrix(0.017777777777777778,0,0,0.017777777777777778,35.12888888888889,0)" xlink:href="#aD"/><use transform="matrix(0.017777777777777778,0,0,0.017777777777777778,43.78666666666666,0)" xlink:href="#aF"/></g><g id="E"><use transform="matrix(0.017777777777777778,0,0,0.017777777777777778,0,0)" xlink:href="#aq"/><use transform="matrix(0.017777777777777778,0,0,0.017777777777777778,5.8133333333333335,0)" xlink:href="#ap"/><use transform="matrix(0.017777777777777778,0,0,0.017777777777777778,14.044444444444444,0)" xlink:href="#aF"/><use transform="matrix(0.017777777777777778,0,0,0.017777777777777778,19.608888888888888,0)" xlink:href="#ar"/><use transform="matrix(0.017777777777777778,0,0,0.017777777777777778,28.69333333333333,0)" xlink:href="#aq"/><use transform="matrix(0.017777777777777778,0,0,0.017777777777777778,34.50666666666667,0)" xlink:href="#aG"/><use transform="matrix(0.017777777777777778,0,0,0.017777777777777778,43.78666666666667,0)" xlink:href="#ap"/><use transform="matrix(0.017777777777777778,0,0,0.017777777777777778,52.01777777777778,0)" xlink:href="#au"/></g><g id="F"><use transform="matrix(0.017777777777777778,0,0,0.017777777777777778,0,0)" xlink:href="#aq"/><use transform="matrix(0.017777777777777778,0,0,0.017777777777777778,5.8133333333333335,0)" xlink:href="#ap"/><use transform="matrix(0.017777777777777778,0,0,0.017777777777777778,14.044444444444444,0)" xlink:href="#aF"/><use transform="matrix(0.017777777777777778,0,0,0.017777777777777778,19.608888888888888,0)" xlink:href="#ar"/><use transform="matrix(0.017777777777777778,0,0,0.017777777777777778,28.69333333333333,0)" xlink:href="#aq"/><use transform="matrix(0.017777777777777778,0,0,0.017777777777777778,34.50666666666667,0)" xlink:href="#aG"/><use transform="matrix(0.017777777777777778,0,0,0.017777777777777778,43.78666666666667,0)" xlink:href="#ap"/><use transform="matrix(0.017777777777777778,0,0,0.017777777777777778,52.01777777777778,0)" xlink:href="#au"/><use transform="matrix(0.017777777777777778,0,0,0.017777777777777778,61.06666666666667,0)" xlink:href="#as"/><use transform="matrix(0.017777777777777778,0,0,0.017777777777777778,68.32000000000001,0)" xlink:href="#aD"/><use transform="matrix(0.017777777777777778,0,0,0.017777777777777778,76.97777777777779,0)" xlink:href="#aF"/></g><g id="G"><use transform="matrix(0.017777777777777778,0,0,0.017777777777777778,0,0)" xlink:href="#au"/><use transform="matrix(0.017777777777777778,0,0,0.017777777777777778,9.04888888888889,0)" xlink:href="#ap"/><use transform="matrix(0.017777777777777778,0,0,0.017777777777777778,17.28,0)" xlink:href="#aG"/><use transform="matrix(0.017777777777777778,0,0,0.017777777777777778,26.560000000000002,0)" xlink:href="#at"/><use transform="matrix(0.017777777777777778,0,0,0.017777777777777778,31.16444444444445,0)" xlink:href="#ap"/><use transform="matrix(0.017777777777777778,0,0,0.017777777777777778,39.39555555555556,0)" xlink:href="#au"/></g><g id="H"><use transform="matrix(0.017777777777777778,0,0,0.017777777777777778,0,0)" xlink:href="#au"/><use transform="matrix(0.017777777777777778,0,0,0.017777777777777778,9.04888888888889,0)" xlink:href="#ar"/><use transform="matrix(0.017777777777777778,0,0,0.017777777777777778,18.133333333333333,0)" xlink:href="#ap"/><use transform="matrix(0.017777777777777778,0,0,0.017777777777777778,26.364444444444445,0)" xlink:href="#as"/><use transform="matrix(0.017777777777777778,0,0,0.017777777777777778,33.617777777777775,0)" xlink:href="#au"/><use transform="matrix(0.017777777777777778,0,0,0.017777777777777778,42.666666666666664,0)" xlink:href="#aD"/><use transform="matrix(0.017777777777777778,0,0,0.017777777777777778,51.32444444444444,0)" xlink:href="#aF"/><use transform="matrix(0.017777777777777778,0,0,0.017777777777777778,56.888888888888886,0)" xlink:href="#ap"/></g><g id="I"><use transform="matrix(0.017777777777777778,0,0,0.017777777777777778,0,0)" xlink:href="#aS"/><use transform="matrix(0.017777777777777778,0,0,0.017777777777777778,9.333333333333332,0)" xlink:href="#aD"/><use transform="matrix(0.017777777777777778,0,0,0.017777777777777778,17.99111111111111,0)" xlink:href="#aF"/><use transform="matrix(0.017777777777777778,0,0,0.017777777777777778,23.555555555555557,0)" xlink:href="#at"/><use transform="matrix(0.017777777777777778,0,0,0.017777777777777778,28.159999999999997,0)" xlink:href="#aG"/><use transform="matrix(0.017777777777777778,0,0,0.017777777777777778,37.44,0)" xlink:href="#aH"/></g><g id="J"><use transform="matrix(0.017777777777777778,0,0,0.017777777777777778,0,0)" xlink:href="#aq"/><use transform="matrix(0.017777777777777778,0,0,0.017777777777777778,5.8133333333333335,0)" xlink:href="#aD"/><use transform="matrix(0.017777777777777778,0,0,0.017777777777777778,14.471111111111112,0)" xlink:href="#aF"/><use transform="matrix(0.017777777777777778,0,0,0.017777777777777778,20.035555555555554,0)" xlink:href="#at"/><use transform="matrix(0.017777777777777778,0,0,0.017777777777777778,24.64,0)" xlink:href="#aG"/><use transform="matrix(0.017777777777777778,0,0,0.017777777777777778,33.92,0)" xlink:href="#aH"/><use transform="matrix(0.017777777777777778,0,0,0.017777777777777778,42.897777777777776,0)" xlink:href="#as"/><use transform="matrix(0.017777777777777778,0,0,0.017777777777777778,50.151111111111106,0)" xlink:href="#at"/><use transform="matrix(0.017777777777777778,0,0,0.017777777777777778,54.75555555555555,0)" xlink:href="#au"/></g><g id="K"><use transform="matrix(0.017777777777777778,0,0,0.017777777777777778,0,0)" xlink:href="#ao"/><use transform="matrix(0.017777777777777778,0,0,0.017777777777777778,7.075555555555556,0)" xlink:href="#ap"/><use transform="matrix(0.017777777777777778,0,0,0.017777777777777778,15.306666666666668,0)" xlink:href="#aG"/><use transform="matrix(0.017777777777777778,0,0,0.017777777777777778,24.586666666666666,0)" xlink:href="#au"/><use transform="matrix(0.017777777777777778,0,0,0.017777777777777778,33.635555555555555,0)" xlink:href="#ap"/><use transform="matrix(0.017777777777777778,0,0,0.017777777777777778,41.86666666666667,0)" xlink:href="#aq"/><use transform="matrix(0.017777777777777778,0,0,0.017777777777777778,47.68,0)" xlink:href="#as"/><use transform="matrix(0.017777777777777778,0,0,0.017777777777777778,54.93333333333333,0)" xlink:href="#at"/><use transform="matrix(0.017777777777777778,0,0,0.017777777777777778,59.53777777777778,0)" xlink:href="#au"/></g><path d="M140-500c20 129 51 249 61 388h2c58-142 141-259 212-388h86L189 11h-32L60-500h80" id="aV"/><g id="L"><use transform="matrix(0.017777777777777778,0,0,0.017777777777777778,0,0)" xlink:href="#aq"/><use transform="matrix(0.017777777777777778,0,0,0.017777777777777778,5.8133333333333335,0)" xlink:href="#ap"/><use transform="matrix(0.017777777777777778,0,0,0.017777777777777778,14.044444444444444,0)" xlink:href="#aM"/><use transform="matrix(0.017777777777777778,0,0,0.017777777777777778,20.995555555555555,0)" xlink:href="#ap"/><use transform="matrix(0.017777777777777778,0,0,0.017777777777777778,29.226666666666667,0)" xlink:href="#at"/><use transform="matrix(0.017777777777777778,0,0,0.017777777777777778,33.83111111111111,0)" xlink:href="#aV"/><use transform="matrix(0.017777777777777778,0,0,0.017777777777777778,41.45777777777778,0)" xlink:href="#ap"/><use transform="matrix(0.017777777777777778,0,0,0.017777777777777778,49.68888888888889,0)" xlink:href="#aq"/><use transform="matrix(0.017777777777777778,0,0,0.017777777777777778,55.50222222222222,0)" xlink:href="#as"/><use transform="matrix(0.017777777777777778,0,0,0.017777777777777778,62.75555555555555,0)" xlink:href="#at"/><use transform="matrix(0.017777777777777778,0,0,0.017777777777777778,67.36,0)" xlink:href="#au"/></g><g id="M"><use transform="matrix(0.017777777777777778,0,0,0.017777777777777778,0,0)" xlink:href="#aq"/><use transform="matrix(0.017777777777777778,0,0,0.017777777777777778,5.8133333333333335,0)" xlink:href="#aD"/><use transform="matrix(0.017777777777777778,0,0,0.017777777777777778,14.471111111111112,0)" xlink:href="#aF"/><use transform="matrix(0.017777777777777778,0,0,0.017777777777777778,20.035555555555554,0)" xlink:href="#at"/><use transform="matrix(0.017777777777777778,0,0,0.017777777777777778,24.64,0)" xlink:href="#aG"/><use transform="matrix(0.017777777777777778,0,0,0.017777777777777778,33.92,0)" xlink:href="#aH"/></g><path d="M210-700h80L142 0H62" id="aW"/><g id="N"><use transform="matrix(0.017777777777777778,0,0,0.017777777777777778,0,0)" xlink:href="#aW"/><use transform="matrix(0.017777777777777778,0,0,0.017777777777777778,4.924444444444444,0)" xlink:href="#aw"/><use transform="matrix(0.017777777777777778,0,0,0.017777777777777778,18.488888888888887,0)" xlink:href="#aD"/><use transform="matrix(0.017777777777777778,0,0,0.017777777777777778,27.14666666666667,0)" xlink:href="#aH"/><use transform="matrix(0.017777777777777778,0,0,0.017777777777777778,36.12444444444444,0)" xlink:href="#ap"/></g><g id="O"><use transform="matrix(0.017777777777777778,0,0,0.017777777777777778,0,0)" xlink:href="#at"/><use transform="matrix(0.017777777777777778,0,0,0.017777777777777778,4.604444444444445,0)" xlink:href="#aw"/><use transform="matrix(0.017777777777777778,0,0,0.017777777777777778,18.168888888888887,0)" xlink:href="#aD"/><use transform="matrix(0.017777777777777778,0,0,0.017777777777777778,26.82666666666666,0)" xlink:href="#aH"/><use transform="matrix(0.017777777777777778,0,0,0.017777777777777778,35.80444444444444,0)" xlink:href="#ap"/><use transform="matrix(0.017777777777777778,0,0,0.017777777777777778,44.035555555555554,0)" xlink:href="#as"/><use transform="matrix(0.017777777777777778,0,0,0.017777777777777778,51.288888888888884,0)" xlink:href="#at"/><use transform="matrix(0.017777777777777778,0,0,0.017777777777777778,55.89333333333333,0)" xlink:href="#au"/></g><g id="P"><use transform="matrix(0.017777777777777778,0,0,0.017777777777777778,0,0)" xlink:href="#ar"/><use transform="matrix(0.017777777777777778,0,0,0.017777777777777778,9.084444444444445,0)" xlink:href="#aq"/><use transform="matrix(0.017777777777777778,0,0,0.017777777777777778,14.89777777777778,0)" xlink:href="#aI"/></g><path d="M551 0c44-191 76-395 131-575h-4l-56 96-240 316h-24L243-479l-15-96h-4l-8 104L116 0H40l149-700h55l130 358c6 26 9 54 16 78l46-80 273-356h71L631 0h-80" id="aX"/><g id="Q"><use transform="matrix(0.017777777777777778,0,0,0.017777777777777778,0,0)" xlink:href="#aX"/><use transform="matrix(0.017777777777777778,0,0,0.017777777777777778,13.404444444444444,0)" xlink:href="#ap"/><use transform="matrix(0.017777777777777778,0,0,0.017777777777777778,21.635555555555555,0)" xlink:href="#ao"/><use transform="matrix(0.017777777777777778,0,0,0.017777777777777778,28.711111111111112,0)" xlink:href="#ao"/><use transform="matrix(0.017777777777777778,0,0,0.017777777777777778,35.78666666666667,0)" xlink:href="#aD"/><use transform="matrix(0.017777777777777778,0,0,0.017777777777777778,44.44444444444444,0)" xlink:href="#aH"/><use transform="matrix(0.017777777777777778,0,0,0.017777777777777778,53.42222222222222,0)" xlink:href="#ap"/></g><g id="R"><use transform="matrix(0.017777777777777778,0,0,0.017777777777777778,0,0)" xlink:href="#aw"/><use transform="matrix(0.017777777777777778,0,0,0.017777777777777778,13.564444444444444,0)" xlink:href="#ap"/><use transform="matrix(0.017777777777777778,0,0,0.017777777777777778,21.795555555555556,0)" xlink:href="#ao"/><use transform="matrix(0.017777777777777778,0,0,0.017777777777777778,28.871111111111112,0)" xlink:href="#ao"/><use transform="matrix(0.017777777777777778,0,0,0.017777777777777778,35.946666666666665,0)" xlink:href="#aD"/><use transform="matrix(0.017777777777777778,0,0,0.017777777777777778,44.60444444444444,0)" xlink:href="#aH"/><use transform="matrix(0.017777777777777778,0,0,0.017777777777777778,53.582222222222214,0)" xlink:href="#ap"/><use transform="matrix(0.017777777777777778,0,0,0.017777777777777778,61.813333333333325,0)" xlink:href="#as"/><use transform="matrix(0.017777777777777778,0,0,0.017777777777777778,69.06666666666666,0)" xlink:href="#at"/><use transform="matrix(0.017777777777777778,0,0,0.017777777777777778,73.67111111111109,0)" xlink:href="#au"/></g><g id="S"><use transform="matrix(0.017777777777777778,0,0,0.017777777777777778,0,0)" xlink:href="#aM"/><use transform="matrix(0.017777777777777778,0,0,0.017777777777777778,6.9511111111111115,0)" xlink:href="#aJ"/><use transform="matrix(0.017777777777777778,0,0,0.017777777777777778,15.804444444444446,0)" xlink:href="#aG"/><use transform="matrix(0.017777777777777778,0,0,0.017777777777777778,25.084444444444443,0)" xlink:href="#aF"/><use transform="matrix(0.017777777777777778,0,0,0.017777777777777778,30.648888888888887,0)" xlink:href="#ap"/><use transform="matrix(0.017777777777777778,0,0,0.017777777777777778,38.87999999999999,0)" xlink:href="#aG"/><use transform="matrix(0.017777777777777778,0,0,0.017777777777777778,48.16,0)" xlink:href="#aF"/></g><path d="M602-626H395L263 0h-80l132-626H110l15-74h492" id="aY"/><path d="M203-256L96-500h85c26 65 57 124 77 195 48-71 107-131 162-195h91L299-260 418 0h-85c-30-70-65-135-88-212C194-133 128-70 69 0h-91" id="aZ"/><g id="T"><use transform="matrix(0.017777777777777778,0,0,0.017777777777777778,0,0)" xlink:href="#aE"/><use transform="matrix(0.017777777777777778,0,0,0.017777777777777778,8.977777777777778,0)" xlink:href="#aF"/><use transform="matrix(0.017777777777777778,0,0,0.017777777777777778,14.542222222222222,0)" xlink:href="#aq"/><use transform="matrix(0.017777777777777778,0,0,0.017777777777777778,20.355555555555554,0)" xlink:href="#at"/><use transform="matrix(0.017777777777777778,0,0,0.017777777777777778,24.96,0)" xlink:href="#aG"/><use transform="matrix(0.017777777777777778,0,0,0.017777777777777778,34.24,0)" xlink:href="#aH"/><use transform="matrix(0.017777777777777778,0,0,0.017777777777777778,43.21777777777778,0)" xlink:href="#aN"/><use transform="matrix(0.017777777777777778,0,0,0.017777777777777778,49.19111111111112,0)" xlink:href="#aY"/><use transform="matrix(0.017777777777777778,0,0,0.017777777777777778,56.67555555555556,0)" xlink:href="#ap"/><use transform="matrix(0.017777777777777778,0,0,0.017777777777777778,64.62222222222223,0)" xlink:href="#aZ"/><use transform="matrix(0.017777777777777778,0,0,0.017777777777777778,73.22666666666667,0)" xlink:href="#aF"/></g><g id="U"><use transform="matrix(0.017777777777777778,0,0,0.017777777777777778,0,0)" xlink:href="#aF"/><use transform="matrix(0.017777777777777778,0,0,0.017777777777777778,5.564444444444445,0)" xlink:href="#at"/><use transform="matrix(0.017777777777777778,0,0,0.017777777777777778,10.16888888888889,0)" xlink:href="#aw"/><use transform="matrix(0.017777777777777778,0,0,0.017777777777777778,23.733333333333334,0)" xlink:href="#ap"/><use transform="matrix(0.017777777777777778,0,0,0.017777777777777778,31.964444444444446,0)" xlink:href="#as"/><use transform="matrix(0.017777777777777778,0,0,0.017777777777777778,39.217777777777776,0)" xlink:href="#ao"/><use transform="matrix(0.017777777777777778,0,0,0.017777777777777778,46.29333333333334,0)" xlink:href="#ap"/><use transform="matrix(0.017777777777777778,0,0,0.017777777777777778,54.52444444444444,0)" xlink:href="#aG"/><use transform="matrix(0.017777777777777778,0,0,0.017777777777777778,63.80444444444444,0)" xlink:href="#aF"/></g><path d="M340-62c60 2 97-15 134-35l6 68c-44 30-89 41-160 41C153 12 71-105 71-274c0-214 92-349 241-412 85-37 214-33 289 1l-36 73c-59-31-168-37-235-2-108 56-175 169-175 331 0 129 58 217 185 221" id="ba"/><g id="V"><use transform="matrix(0.017777777777777778,0,0,0.017777777777777778,0,0)" xlink:href="#ba"/><use transform="matrix(0.017777777777777778,0,0,0.017777777777777778,8.995555555555555,0)" xlink:href="#aD"/><use transform="matrix(0.017777777777777778,0,0,0.017777777777777778,17.653333333333332,0)" xlink:href="#aF"/><use transform="matrix(0.017777777777777778,0,0,0.017777777777777778,23.217777777777776,0)" xlink:href="#aD"/><use transform="matrix(0.017777777777777778,0,0,0.017777777777777778,31.875555555555554,0)" xlink:href="#aI"/><use transform="matrix(0.017777777777777778,0,0,0.017777777777777778,36.675555555555555,0)" xlink:href="#aJ"/><use transform="matrix(0.017777777777777778,0,0,0.017777777777777778,45.528888888888886,0)" xlink:href="#aH"/></g><g id="W"><use transform="matrix(0.017777777777777778,0,0,0.017777777777777778,0,0)" xlink:href="#aW"/><use transform="matrix(0.017777777777777778,0,0,0.017777777777777778,4.924444444444444,0)" xlink:href="#aE"/><use transform="matrix(0.017777777777777778,0,0,0.017777777777777778,13.90222222222222,0)" xlink:href="#aP"/><use transform="matrix(0.017777777777777778,0,0,0.017777777777777778,23.786666666666665,0)" xlink:href="#av"/></g><path d="M78-74h133l104-484 22-59c-46 52-111 86-169 126l-28-51 247-170h34L285-74h130L400 0H63" id="bb"/><path d="M238 12C34 12 39-242 80-414c28-112 77-205 156-260 37-25 77-38 121-38 128 0 179 87 177 230-2 194-59 362-169 450-37 29-79 44-127 44zm202-333c24-118 49-334-95-321-120 11-165 135-192 251-28 118-50 344 97 333 124-10 166-145 190-263" id="bc"/><g id="X"><use transform="matrix(0.017777777777777778,0,0,0.017777777777777778,0,0)" xlink:href="#bb"/><use transform="matrix(0.017777777777777778,0,0,0.017777777777777778,9.244444444444444,0)" xlink:href="#bc"/></g><g id="Y"><use transform="matrix(0.017777777777777778,0,0,0.017777777777777778,0,0)" xlink:href="#av"/><use transform="matrix(0.017777777777777778,0,0,0.017777777777777778,11.413333333333334,0)" xlink:href="#ar"/><use transform="matrix(0.017777777777777778,0,0,0.017777777777777778,20.497777777777777,0)" xlink:href="#aw"/><use transform="matrix(0.017777777777777778,0,0,0.017777777777777778,34.06222222222222,0)" xlink:href="#ax"/><use transform="matrix(0.017777777777777778,0,0,0.017777777777777778,43.32444444444444,0)" xlink:href="#ap"/><use transform="matrix(0.017777777777777778,0,0,0.017777777777777778,51.55555555555555,0)" xlink:href="#aq"/></g><path d="M79-84c29 15 67 27 113 26 116-3 187-65 187-175 0-78-36-109-123-108h-72l6-29 182-222 52-44c-70 16-164 8-248 10l14-74h340l-6 29-201 242c-13 11-28 18-39 31l33-7c93 5 137 62 140 160C463-30 248 58 43-13" id="bd"/><g id="Z"><use transform="matrix(0.017777777777777778,0,0,0.017777777777777778,0,0)" xlink:href="#bb"/><use transform="matrix(0.017777777777777778,0,0,0.017777777777777778,9.244444444444444,0)" xlink:href="#bd"/></g><g id="aa"><use transform="matrix(0.017777777777777778,0,0,0.017777777777777778,0,0)" xlink:href="#av"/><use transform="matrix(0.017777777777777778,0,0,0.017777777777777778,11.413333333333334,0)" xlink:href="#aD"/><use transform="matrix(0.017777777777777778,0,0,0.017777777777777778,20.07111111111111,0)" xlink:href="#aw"/><use transform="matrix(0.017777777777777778,0,0,0.017777777777777778,33.635555555555555,0)" xlink:href="#ap"/></g><g id="ab"><use transform="matrix(0.017777777777777778,0,0,0.017777777777777778,0,0)" xlink:href="#aE"/><use transform="matrix(0.017777777777777778,0,0,0.017777777777777778,8.977777777777778,0)" xlink:href="#aF"/><use transform="matrix(0.017777777777777778,0,0,0.017777777777777778,14.542222222222222,0)" xlink:href="#aq"/><use transform="matrix(0.017777777777777778,0,0,0.017777777777777778,20.355555555555554,0)" xlink:href="#at"/><use transform="matrix(0.017777777777777778,0,0,0.017777777777777778,24.96,0)" xlink:href="#aG"/><use transform="matrix(0.017777777777777778,0,0,0.017777777777777778,34.24,0)" xlink:href="#aH"/></g><path d="M388-512c71 0 110 31 105 109-9 141-53 272-77 403h-75c24-127 58-245 74-380 9-72-65-80-115-54-54 27-101 75-126 131L111 0H36l148-700h75l-62 286h4c43-49 98-98 187-98" id="be"/><g id="ac"><use transform="matrix(0.017777777777777778,0,0,0.017777777777777778,0,0)" xlink:href="#az"/><use transform="matrix(0.017777777777777778,0,0,0.017777777777777778,9.457777777777778,0)" xlink:href="#ar"/><use transform="matrix(0.017777777777777778,0,0,0.017777777777777778,18.54222222222222,0)" xlink:href="#ax"/><use transform="matrix(0.017777777777777778,0,0,0.017777777777777778,27.80444444444444,0)" xlink:href="#aI"/><use transform="matrix(0.017777777777777778,0,0,0.017777777777777778,32.60444444444444,0)" xlink:href="#at"/><use transform="matrix(0.017777777777777778,0,0,0.017777777777777778,37.208888888888886,0)" xlink:href="#ao"/><use transform="matrix(0.017777777777777778,0,0,0.017777777777777778,44.28444444444444,0)" xlink:href="#be"/><use transform="matrix(0.017777777777777778,0,0,0.017777777777777778,53.68888888888888,0)" xlink:href="#ap"/><use transform="matrix(0.017777777777777778,0,0,0.017777777777777778,61.919999999999995,0)" xlink:href="#aq"/></g><g id="ad"><use transform="matrix(0.017777777777777778,0,0,0.017777777777777778,0,0)" xlink:href="#az"/><use transform="matrix(0.017777777777777778,0,0,0.017777777777777778,9.457777777777778,0)" xlink:href="#ar"/><use transform="matrix(0.017777777777777778,0,0,0.017777777777777778,18.54222222222222,0)" xlink:href="#ax"/><use transform="matrix(0.017777777777777778,0,0,0.017777777777777778,27.80444444444444,0)" xlink:href="#aI"/><use transform="matrix(0.017777777777777778,0,0,0.017777777777777778,32.60444444444444,0)" xlink:href="#at"/><use transform="matrix(0.017777777777777778,0,0,0.017777777777777778,37.208888888888886,0)" xlink:href="#ao"/><use transform="matrix(0.017777777777777778,0,0,0.017777777777777778,44.28444444444444,0)" xlink:href="#be"/></g><g id="ae"><use transform="matrix(0.017777777777777778,0,0,0.017777777777777778,0,0)" xlink:href="#aO"/><use transform="matrix(0.017777777777777778,0,0,0.017777777777777778,11.057777777777778,0)" xlink:href="#aD"/><use transform="matrix(0.017777777777777778,0,0,0.017777777777777778,19.715555555555557,0)" xlink:href="#aF"/><use transform="matrix(0.017777777777777778,0,0,0.017777777777777778,25.279999999999998,0)" xlink:href="#ap"/></g><path d="M404-194H160L52 0h-85l404-711h37L509 0h-77zm-205-72h197c-13-104-33-201-32-319-43 119-108 215-165 319" id="bf"/><g id="af"><use transform="matrix(0.017777777777777778,0,0,0.017777777777777778,0,0)" xlink:href="#bf"/><use transform="matrix(0.017777777777777778,0,0,0.017777777777777778,9.902222222222223,0)" xlink:href="#ar"/><use transform="matrix(0.017777777777777778,0,0,0.017777777777777778,18.986666666666668,0)" xlink:href="#aF"/><use transform="matrix(0.017777777777777778,0,0,0.017777777777777778,24.551111111111112,0)" xlink:href="#be"/><use transform="matrix(0.017777777777777778,0,0,0.017777777777777778,33.955555555555556,0)" xlink:href="#aJ"/><use transform="matrix(0.017777777777777778,0,0,0.017777777777777778,42.80888888888889,0)" xlink:href="#aq"/><use transform="matrix(0.017777777777777778,0,0,0.017777777777777778,48.62222222222222,0)" xlink:href="#aN"/><use transform="matrix(0.017777777777777778,0,0,0.017777777777777778,54.595555555555556,0)" xlink:href="#ao"/></g><g id="ag"><use transform="matrix(0.017777777777777778,0,0,0.017777777777777778,0,0)" xlink:href="#bf"/><use transform="matrix(0.017777777777777778,0,0,0.017777777777777778,9.902222222222223,0)" xlink:href="#aq"/><use transform="matrix(0.017777777777777778,0,0,0.017777777777777778,15.715555555555557,0)" xlink:href="#aq"/><use transform="matrix(0.017777777777777778,0,0,0.017777777777777778,21.52888888888889,0)" xlink:href="#aD"/><use transform="matrix(0.017777777777777778,0,0,0.017777777777777778,30.186666666666667,0)" xlink:href="#aL"/></g><g id="ah"><use transform="matrix(0.017777777777777778,0,0,0.017777777777777778,0,0)" xlink:href="#az"/><use transform="matrix(0.017777777777777778,0,0,0.017777777777777778,9.457777777777778,0)" xlink:href="#aD"/><use transform="matrix(0.017777777777777778,0,0,0.017777777777777778,18.115555555555556,0)" xlink:href="#aH"/><use transform="matrix(0.017777777777777778,0,0,0.017777777777777778,27.093333333333334,0)" xlink:href="#ap"/></g><g id="ai"><use transform="matrix(0.017777777777777778,0,0,0.017777777777777778,0,0)" xlink:href="#ba"/><use transform="matrix(0.017777777777777778,0,0,0.017777777777777778,8.995555555555555,0)" xlink:href="#aJ"/><use transform="matrix(0.017777777777777778,0,0,0.017777777777777778,17.848888888888887,0)" xlink:href="#ar"/><use transform="matrix(0.017777777777777778,0,0,0.017777777777777778,26.93333333333333,0)" xlink:href="#aG"/><use transform="matrix(0.017777777777777778,0,0,0.017777777777777778,36.21333333333333,0)" xlink:href="#aF"/></g><g id="aj"><use transform="matrix(0.017777777777777778,0,0,0.017777777777777778,0,0)" xlink:href="#aW"/><use transform="matrix(0.017777777777777778,0,0,0.017777777777777778,4.924444444444444,0)" xlink:href="#aw"/><use transform="matrix(0.017777777777777778,0,0,0.017777777777777778,18.488888888888887,0)" xlink:href="#aH"/></g><g id="ak"><use transform="matrix(0.017777777777777778,0,0,0.017777777777777778,0,0)" xlink:href="#an"/><use transform="matrix(0.017777777777777778,0,0,0.017777777777777778,10.986666666666666,0)" xlink:href="#aq"/><use transform="matrix(0.017777777777777778,0,0,0.017777777777777778,16.8,0)" xlink:href="#aI"/></g><g id="al"><use transform="matrix(0.017777777777777778,0,0,0.017777777777777778,0,0)" xlink:href="#ba"/><use transform="matrix(0.017777777777777778,0,0,0.017777777777777778,8.995555555555555,0)" xlink:href="#aD"/><use transform="matrix(0.017777777777777778,0,0,0.017777777777777778,17.653333333333332,0)" xlink:href="#aF"/><use transform="matrix(0.017777777777777778,0,0,0.017777777777777778,23.217777777777776,0)" xlink:href="#aD"/><use transform="matrix(0.017777777777777778,0,0,0.017777777777777778,31.875555555555554,0)" xlink:href="#aH"/><use transform="matrix(0.017777777777777778,0,0,0.017777777777777778,40.85333333333333,0)" xlink:href="#aJ"/><use transform="matrix(0.017777777777777778,0,0,0.017777777777777778,49.70666666666666,0)" xlink:href="#aq"/><use transform="matrix(0.017777777777777778,0,0,0.017777777777777778,55.52,0)" xlink:href="#aL"/><use transform="matrix(0.017777777777777778,0,0,0.017777777777777778,63.32444444444444,0)" xlink:href="#ao"/></g><g id="am"><use transform="matrix(0.017777777777777778,0,0,0.017777777777777778,0,0)" xlink:href="#aO"/><use transform="matrix(0.017777777777777778,0,0,0.017777777777777778,11.057777777777778,0)" xlink:href="#ap"/><use transform="matrix(0.017777777777777778,0,0,0.017777777777777778,19.28888888888889,0)" xlink:href="#ao"/><use transform="matrix(0.017777777777777778,0,0,0.017777777777777778,26.364444444444448,0)" xlink:href="#aM"/><use transform="matrix(0.017777777777777778,0,0,0.017777777777777778,33.83111111111111,0)" xlink:href="#aq"/><use transform="matrix(0.017777777777777778,0,0,0.017777777777777778,39.644444444444446,0)" xlink:href="#at"/><use transform="matrix(0.017777777777777778,0,0,0.017777777777777778,44.24888888888889,0)" xlink:href="#aK"/><use transform="matrix(0.017777777777777778,0,0,0.017777777777777778,53.28,0)" xlink:href="#aF"/><use transform="matrix(0.017777777777777778,0,0,0.017777777777777778,58.844444444444456,0)" xlink:href="#at"/><use transform="matrix(0.017777777777777778,0,0,0.017777777777777778,63.448888888888895,0)" xlink:href="#aJ"/><use transform="matrix(0.017777777777777778,0,0,0.017777777777777778,72.30222222222223,0)" xlink:href="#aG"/></g></defs></g></svg>